<svg width="491" height="157" viewBox="0 0 491 157" fill="none" xmlns="http://www.w3.org/2000/svg">
<path d="M6 155C6 155 116.947 54.5522 130.234 54.5522C143.522 54.5521 195.341 108.185 211.95 114.422C217.929 116.667 235.203 116.62 241.846 114.422C255.133 110.025 269.749 94.4652 273.735 91.1391C277.721 87.813 332.029 96.4609 344.157 91.1391C362.689 83.0073 373.388 69.187 383.354 69.187C393.319 69.187 485 155 485 155M6 155C6 155 116.947 79.8305 130.234 79.8304C143.522 79.8304 195.341 120.159 211.95 126.396C217.929 128.641 235.203 128.594 241.846 126.396C255.133 121.999 269.085 109.765 273.735 107.104C278.386 104.443 332.029 112.426 344.157 107.104C362.689 98.9725 373.388 89.1435 383.354 89.1435C393.319 89.1435 485 155 485 155M6 155H485M6 155C6 155 116.947 107.77 130.234 107.77C143.522 107.77 195.341 130.803 211.95 137.039C219.258 137.704 236.531 138.37 241.846 137.039C255.133 132.642 269.749 124.204 273.735 123.07C279.714 121.368 332.029 128.391 344.157 123.07C362.689 114.938 373.388 110.43 383.354 110.43C393.319 110.43 485 155 485 155M6 155C6 155 116.947 130.387 130.234 130.387C143.522 130.387 190.691 142.361 211.95 146.352C217.929 146.352 233.209 146.352 241.846 146.352C255.133 141.955 268.42 140.365 273.735 139.035C279.242 137.656 338.178 141.03 344.157 139.035C350.136 137.039 376.71 131.717 383.354 131.717C389.997 131.717 485 155 485 155M6 154.335C6 154.335 116.947 2.00003 130.234 2C143.522 1.99997 195.341 84.9027 211.95 91.1391C217.929 93.3842 235.203 93.3376 241.846 91.1391C255.133 86.7422 269.085 57.1583 273.735 54.5522C278.386 51.9461 332.029 59.8739 344.157 54.5522C362.689 46.4203 373.388 20.6261 383.354 20.6261C393.319 20.6261 485 154.335 485 154.335C485 154.335 393.319 47.9 383.354 47.9C373.388 47.9 362.689 65.0464 344.157 73.1783C332.029 78.5 278.052 70.2963 273.735 73.1783C269.749 75.8391 255.133 98.7162 241.846 103.113C235.203 105.311 217.929 105.358 211.95 103.113C195.341 96.8766 143.522 30.6043 130.234 30.6043C116.947 30.6044 6 154.335 6 154.335Z" stroke="url(#paint0_linear_88_23)" stroke-width="4" stroke-linecap="round"/>
<defs>
<linearGradient id="paint0_linear_88_23" x1="245.5" y1="2" x2="245.5" y2="155" gradientUnits="userSpaceOnUse">
<stop offset="0.342014" stop-color="#A1F2DC"/>
<stop offset="1" stop-color="#096B5A"/>
</linearGradient>
</defs>
</svg>
